<svg class="img-fluid" xmlns="http://www.w3.org/2000/svg" style="transform:matrix(1.11388,0,0,1.11388,-27,2);transform-origin:50% 50%;cursor:move;transition:none 0s ease 0s" width="860" height="398" viewBox="0 0 8600 3980"><g style="transform:none" fill="#FFF"><path d="M6810 3743c-443-31-662-139-1010-500-182-189-278-371-460-878-271-755-361-963-509-1184a630 630 0 0 0-474-296 861 861 0 0 0-312 0 776 776 0 0 0-374 157c-111 89-68 95-329-42-127-67-233-128-236-137-5-11 17-38 68-87 179-172 405-294 655-351 88-21 299-45 391-45 42 0 129 7 195 15 300 37 510 133 706 322 197 190 317 429 549 1088 215 614 331 853 517 1077 337 405 935 483 1268 167 164-156 237-359 265-738 35-475-41-853-230-1130-124-184-344-296-615-316a817 817 0 0 0-612 200c-44 36-75 54-88 52-11-2-118-59-238-126-155-89-217-129-217-141 0-25 169-181 265-245 158-105 330-172 528-206 143-24 422-26 576-3 457 67 797 322 1012 759 136 278 189 538 189 930-1 482-78 828-243 1084-94 145-296 344-433 426-71 43-186 88-279 110-92 21-424 45-525 38zM4030 3729c-194-22-434-86-622-165-512-216-753-603-858-1380l-30-224c-51-392-78-497-158-629a882 882 0 0 0-509-393c-102-29-331-31-433-4a959 959 0 0 0-425 269c-97 106-171 285-206 497-9 54-14 336-18 1020l-6 945H285l-3-975c-2-866-1-988 14-1095 42-302 148-539 325-729 378-404 853-543 1374-401 343 93 612 304 807 632 88 149 140 300 172 503 14 87 21 147 46 375 26 232 32 287 46 365 26 151 53 251 93 335 172 367 516 579 986 609 84 5 328-5 549-24l129-11 221 116c122 64 228 123 236 131 12 12 12 16 0 28-18 18-217 98-308 125-96 28-311 69-422 81-113 12-415 11-520-1z"/><path d="M3357 2233c-14-27-30-66-37-88-18-55-39-287-27-302 7-10 156-13 684-13h675l169 101c115 69 169 107 169 119 0 10-54 61-131 124l-131 106H3380l-23-47z"/></g></svg>
